<svg width="134" height="41" viewBox="0 0 134 41" fill="none" xmlns="http://www.w3.org/2000/svg">
<g clip-path="url(#clip0_8393_4361)">
<path d="M65.7729 12.5708H57.4258V12.6757C58.4727 12.9047 58.7637 13.5963 58.7637 17.4885V23.3672C58.7637 27.028 58.4704 27.8651 57.4258 28.1799V28.2849H65.7729C71.1699 28.2849 74.4134 25.4826 74.4134 20.4386C74.4134 15.3945 71.1699 12.5732 65.7729 12.5732V12.5708ZM64.2871 27.5289H62.3625C61.7138 27.5289 61.3585 27.195 61.3585 26.5033V13.322H64.2871C68.9114 13.322 71.4847 15.8739 71.4847 20.4362C71.4847 24.9985 68.9114 27.5289 64.2871 27.5289Z" fill="#022E71"/>
<path d="M52.2791 12.6757C53.2617 13.1145 53.555 13.9945 53.5336 17.2785L53.4906 24.6836C53.4906 24.8935 53.3857 25.0175 53.2402 25.0175C53.1353 25.0175 53.0113 24.9555 52.9064 24.8076L48.4919 18.3016C44.8716 12.9666 43.6792 12.5684 42.2363 12.5684H39.4961V12.6733C40.4596 12.9881 40.7315 14.0971 40.7315 16.0217V23.5746C40.7315 26.8372 40.4596 27.6743 39.4961 28.1775V28.2824H42.928V28.1775C41.9645 27.6743 41.6926 26.8396 41.6926 23.5746V14.9962C41.6926 14.7458 41.8381 14.5359 42.0909 14.5359C42.3842 14.5359 42.5082 14.6814 42.7396 15.0391C44.7262 18.1156 48.5754 23.8251 50.8768 26.4413C52.2362 27.9676 53.0518 28.2824 53.9319 28.2824H54.9574C54.6235 27.7172 54.4756 27.1734 54.4756 25.4802V17.2785C54.4756 13.9945 54.7475 13.1145 55.7301 12.6757V12.5707H52.2791V12.6757Z" fill="#022E71"/>
<path d="M32.1328 12.6757C33.1798 12.9047 33.4707 13.5963 33.4707 17.4885V23.3672C33.4707 27.028 33.1774 27.8651 32.1328 28.1799V28.2849H37.3629V28.1799C36.3159 27.8651 36.025 27.0304 36.025 23.3672V17.4885C36.025 13.5963 36.3183 12.9285 37.3629 12.6757V12.5708H32.1328V12.6757Z" fill="#022E71"/>
<path d="M94.8125 12.6757C95.8595 12.9047 96.1504 13.5963 96.1504 17.4885V23.3672C96.1504 27.028 95.8571 27.8651 94.8125 28.1799V28.2849H100.043V28.1799C98.9956 27.8651 98.7046 27.0304 98.7046 23.3672V17.4885C98.7046 13.5963 98.998 12.9285 100.043 12.6757V12.5708H94.8125V12.6757Z" fill="#022E71"/>
<path d="M130.42 23.3028L126.488 14.8293C125.567 12.8212 125.233 12.5708 123.392 12.5708H121.739V12.6757C122.345 12.9905 122.805 13.4508 122.805 14.2855C122.805 14.8722 122.534 15.7284 122.157 16.5035L118.224 24.6002C117.597 25.919 116.509 27.8007 115.336 28.1775V28.2825H118.558V28.199C118.496 28.137 118.308 27.9271 118.308 27.4883C118.308 27.0495 118.434 26.6727 118.579 26.2959L118.746 25.8976C119.25 24.7266 119.896 24.2449 121.069 24.2449H126.027C127.241 24.2449 127.742 24.5597 128.267 25.6257L128.916 26.9446C129.376 27.8866 130.065 28.2825 131.446 28.2825H133.998V28.1775C132.805 27.8007 132.011 26.7132 130.42 23.3028ZM120.013 23.4292L123.705 15.6712L127.38 23.4292H120.013Z" fill="#022E71"/>
<path d="M111.401 22.3418L115.272 16.5059C116.736 14.288 117.447 13.2434 118.787 12.6782V12.5732H115.355V12.6352C115.544 12.8451 115.649 13.1385 115.649 13.3459C115.649 14.288 114.959 15.3755 114.478 16.0862L112.009 19.7899C111.675 20.2931 111.528 20.4386 111.215 20.4386C110.86 20.4386 110.671 20.2717 110.504 19.9998L107.616 15.4399C106.007 12.888 105.274 12.5732 103.18 12.5732H101.234V12.6782C102.384 12.9071 103.514 14.1854 105.334 16.8827L109.016 22.3442L109.038 23.3697C109.038 23.7035 109.059 23.9969 109.059 24.2902C109.059 27.1783 108.661 27.889 107.7 28.1824V28.2873H112.72V28.1824C111.757 27.889 111.361 27.1783 111.361 24.2902C111.361 23.9969 111.382 23.7035 111.382 23.3697L111.404 22.3442L111.401 22.3418Z" fill="#022E71"/>
<path d="M90.5857 26.043L88.2437 23.1549C87.7954 22.5944 87.4186 22.1699 86.8343 21.9076C89.1715 21.662 91.0055 19.9782 91.0055 17.2761C91.0055 14.3475 88.3702 12.5684 85.1482 12.5684H76.1523V12.6733C77.1993 12.9022 77.4903 13.5939 77.4903 17.486V23.3648C77.4903 27.0256 77.1969 27.8627 76.1523 28.1775V28.2824H81.4253V28.1775C80.3784 27.6552 80.0874 26.7537 80.0874 24.8291V23.6581C80.0874 22.5921 80.6312 22.0483 81.6972 22.0483H82.4914C83.5384 22.0483 84.5424 22.4657 85.2316 23.3457C85.8183 24.0993 86.3191 24.7886 86.758 25.3967C88.809 28.2419 89.7701 28.2848 91.8616 28.2848H93.4094V28.1799C92.3219 27.8651 91.2749 26.8825 90.5857 26.0454V26.043ZM84.3731 21.2541H80.085L80.0636 13.3244H83.8293C86.529 13.3244 87.9504 14.8316 87.9504 17.2785C87.9504 19.7254 86.5481 21.2541 84.3731 21.2541Z" fill="#022E71"/>
<path d="M9.25816 5.82615C7.04974 1.86246 1.66943 4.67663 0.0548525 1.18276C0.0429281 1.15414 0 1.16607 0 1.19707C0.238489 5.156 5.36839 3.08114 7.4671 5.96447C7.47426 5.97401 7.48618 5.97878 7.4981 5.97401C7.76521 5.89054 8.48307 5.70452 9.22715 5.86669C9.251 5.87146 9.27008 5.84761 9.25816 5.82615Z" fill="#022E71"/>
<path d="M4.22 2.74971C4.29393 2.75925 4.36786 2.76879 4.44179 2.77833C4.46087 2.78071 4.47041 2.75686 4.45372 2.74494C3.48306 2.09386 2.72944 1.31877 2.68174 0.0261604C2.68174 -0.00484324 2.63643 -0.0119979 2.62689 0.0190057C2.22623 1.16137 2.50049 1.94123 3.0824 2.58754C3.08717 2.59231 3.09194 2.59469 3.0991 2.59708C3.45683 2.6567 3.83364 2.7044 4.22 2.75209V2.74971Z" fill="#022E71"/>
<path d="M23.23 20.0926C23.1918 20.1236 23.137 20.1117 23.1107 20.0688C22.6552 19.2722 21.8396 18.7571 21.5605 18.5997C21.5367 18.5854 21.5462 18.5496 21.5725 18.5496C22.9843 18.5424 23.5996 17.4692 23.7785 17.0781C23.8023 17.028 23.8763 17.0304 23.8953 17.0829C24.575 18.862 23.5233 19.8565 23.2276 20.095L23.23 20.0926Z" fill="#022E71"/>
<path d="M7.59634 29.3508C7.63927 29.3771 7.63927 29.4414 7.59634 29.4677C6.54937 30.0949 5.03735 31.4471 4.72016 32.6611C4.2241 34.5714 5.15898 36.6319 5.68843 38.4444C5.71466 38.5374 5.78621 38.7115 5.65504 38.764C5.54533 38.8069 5.47379 38.6901 5.43563 38.6066C5.38793 38.5017 5.33546 38.4015 5.28538 38.2989C4.59376 36.9085 3.6255 35.263 3.01735 33.8344C2.80986 33.3479 2.71685 32.8638 2.79078 32.3415C3.03166 30.6315 4.12155 28.5996 4.29088 26.8467C4.29327 26.8109 4.33619 26.7894 4.36243 26.8133C4.36243 26.8133 5.62404 28.633 7.59634 29.3556V29.3508Z" fill="#022E71"/>
<path d="M11.8011 21.0468C11.3146 20.379 10.8567 19.654 10.561 18.8766C10.549 18.8432 10.5538 18.8026 10.5777 18.7764C10.6015 18.7478 10.6397 18.7359 10.6754 18.743C13.4825 19.3035 14.5509 18.9696 15.679 18.619C18.1282 17.8582 20.8661 18.2279 22.4473 20.4148C24.4458 23.1789 23.5229 27.1188 23.3869 30.2692C23.2915 32.5062 23.2772 35.8952 23.2677 38.3683C23.2629 39.3771 23.2581 40.207 23.251 40.6983C23.251 40.7723 23.2009 40.851 23.127 40.851H23.084C23.0173 40.851 22.9696 40.7746 22.9553 40.6912V40.6769C22.9052 40.3072 22.8479 39.9232 22.8002 39.5417C22.4234 36.5081 22.0347 33.0834 20.6777 30.3598C19.7023 28.4042 18.2284 26.7515 16.5113 25.4136C14.7894 24.0709 13.0985 22.8331 11.7963 21.0444L11.8011 21.0468Z" fill="#022E71"/>
<path d="M14.4007 29.0099C13.3776 22.6399 9.61898 21.5882 9.01799 18.0466C8.57678 15.4542 9.12769 12.4445 9.40672 11.19C11.2025 11.2115 13.3561 11.2282 13.628 9.14855C13.6304 9.12709 13.6161 9.10562 13.5946 9.09847C13.3656 9.03646 13.1582 8.97445 12.9698 8.91006C12.8076 8.84805 12.6454 8.78128 12.4785 8.72881C12.4785 8.72881 12.4785 8.72881 12.4761 8.72881C11.9633 8.52132 11.4697 8.24706 11.0976 7.8297C10.7518 7.44097 10.5085 6.99499 9.99341 6.80897C9.27556 6.48939 8.36691 6.425 7.63713 6.68019C7.61567 6.68734 7.60136 6.71119 7.60613 6.73504C7.74207 7.37419 7.69199 7.93702 7.67052 8.11112L7.65621 8.12066C7.65621 8.12066 7.64906 8.11828 7.64906 8.11351C7.54889 7.79632 7.42011 7.49582 7.29132 7.23348C6.89782 6.35584 5.96532 5.82401 5.46927 5.77393C5.45496 5.77393 5.44065 5.78108 5.43588 5.79539C5.34287 6.03149 4.57016 7.60314 6.26344 8.91722L6.16327 9.17478L6.14181 9.23202C5.31186 11.4667 4.52723 13.7275 3.86185 16.017C3.18454 18.3495 2.80772 20.9013 3.52081 23.2743C4.20527 25.5542 5.87708 27.1497 7.83746 28.3803C9.41388 29.3677 11.0762 30.1261 12.1613 31.7073C13.9523 34.3163 14.2719 37.6289 14.5509 40.6935C14.5629 40.8152 14.6249 40.8557 14.6964 40.8557H14.7036C14.8157 40.8509 14.8371 40.7365 14.8443 40.6554C14.9063 39.7992 15.2211 34.1088 14.4031 29.0123L14.4007 29.0099Z" fill="#022E71"/>
</g>
<defs>
<clipPath id="clip0_8393_4361">
<rect width="134" height="40.8532" fill="white"/>
</clipPath>
</defs>
</svg>
